<svg xmlns="http://www.w3.org/2000/svg" version="1.1" xmlns:xlink="http://www.w3.org/1999/xlink" xmlns:svgjs="http://svgjs.dev/svgjs" width="2000" height="2250" viewBox="0 0 2000 2250"><g transform="matrix(1,0,0,1,0.00014687500004129106,0)"><svg viewBox="0 0 320 360" data-background-color="#ffffff" preserveAspectRatio="xMidYMid meet" height="2250" width="2000" xmlns="http://www.w3.org/2000/svg" xmlns:xlink="http://www.w3.org/1999/xlink"><g id="tight-bounds" transform="matrix(1,0,0,1,0.000023499999997511622,0)"><svg viewBox="0 0 320 360" height="360" width="320"><g><svg></svg></g><g><svg viewBox="0 0 320 360" height="360" width="320"><g><path transform="translate(-74.99272,-51.79039) scale(4.65793,4.65793)" d="M20.6 59.9l0.8 1-0.4-1.3c-0.1-0.6-0.8 0.1-0.4 0.3M21.5 59.3c0.3 0.5 0.6 1 0.6 1.5 0 0.7 0.6 1 1.1 1.2-0.7-0.8-1.1-3-1.7-2.7M59.9 16.9c1.7 0 3.3-0.2 5.1 0.2 4.4 1.1 8.1 3.3 10.6 6.4l7 11.2c0.3 2.8 0.9 5.9 0.8 9.3 0.7 0 0.6-1 1.4-1.2-0.8 2-1.2 4.5-1.4 7.4-0.5-1.6 0-4 0.1-5.3-0.7 1.1-1.1 0.3-1.1-0.2 0.1-0.8-0.3-0.7-0.6-1-1.1-1-1.8-2.1-2.6-3.8 0.5-1.3 0.6-3.2-1-4.2-0.5-0.3-1.1-0.8-1.4-1.6-0.4-1.1-1.1-2.4-0.9-4.1 0.1-0.5-1.5 1.1-2.4 0.4-3.9-2.7-7.8-5.8-12.5-8.4-2.5 0-4.3-0.9-5.2-2-0.8-1-0.2-2.3 1-2.4 0.7 0 1.5-0.2 2.1 0.2 0.1-0.4 0.5-0.9 1-0.9M50 14.6l0.2 0.1c1 0.2 1.5 1.6 2.6 1.1 0 0.7 0.1 1.4-0.1 1.9-0.3 0.8-1.2 0.8-1.9 0.8-6.7-0.4-10.6 2.4-14.7 4.8-1.1 0.7-2.3 1.2-3.2 2.1-4.3 4-9 7.7-10.1 15.1l-0.9 8.2c-0.1 0.9-1.1 1.8-0.9 2.9l0.7 4.9c-0.7-0.7-1.1 0.2-0.9 0.6 0.1 0.3 0.5 1.3 1.1 0.4 0.8 1.5 1.6 4.4 2.7 5.7 3.4 4 7.8 7.6 11.4 11.2 0.9-0.2 1.6-0.2 1.8-0.8 0.3 0.6-0.3 1.2-0.8 1.3 1.6 1 3.4 1.9 5.8 2.1 3.1 0.2 6 0.7 8.7 1.4 1.4-0.4 2.8-0.6 4.3-0.7 0.5 0 0.8-0.8 1.4-1l0.1-1c0.6 0.9 0.5-0.3 0.1-0.9 0.7 0.6 0.9 1.1 1.2 1.5 0-0.3 0.8-1.4 0.8-0.1l0.2-1.3c0.3-0.2 0.4 1.1 0.7 0.2 0.3-0.9 0.9-0.2 1.5-0.5-0.2 0.4-0.1 1.2 0.6 0.7l0.8-0.7c0.5 1.2 1.3 0.7 1.7 0.5 4.4-2.8 8.8-6.1 13-9.4l-0.1 1.3 0.5-1.6c0.5 0.5 0.9 0.1 1.1-0.2 0.6-1 1.4-2 2.7-2.9-1.6 4.3-3.5 7.7-5.9 10.5l-1 1.2c0 0.7-0.2 1.6-1 1.7-0.4 0.1-1.2-0.2-1.8 0.4-0.3 0.4 0.7 1.2-0.1 0.6-0.7-0.5-1.4 0-2.2 0.2-0.6 0.2 0.4 0.8 0.6 1.2 0.2 0.4 0.4 0.8 0.3 1.3l-1.1-1.2c-1.3 0.7-2.1 2-3.2 3-0.5 0.4-0.3 1.1-0.3 1.7-0.7 0-1.5-0.2-1.9 0.2-0.3 0.4-0.2 1-0.2 1.6-1-0.1-1.1-1.6-2-1.3-0.9 0.2-1.9 0.3-2.7 0.8 0.6 1.2-1 0.5-0.8 0.7-1.5-0.9-2.8-1.6-4.4-1-3.4-1.1-7.6-0.6-10.7-0.2 0-0.5 0.1-1-0.1-1.1-0.2 0.5-0.8 0.3-0.7 0.3-1.9-1.3-3.8-2.1-5.8-3.2-1.8 0.2-3.5-0.7-4-1.2-1.4-1.3-3-0.6-4.3-0.9-2.8-0.7-3.8-3.6-4.1-5.6-0.2-1-1-1.4-1.3-1.3-1.3-4.2-3.3-8-4.9-11.9-0.4-1-0.3-2-0.3-3.1 0.5 0.2 1 0.1 0.9-0.6-0.5-3.3-1.7-5.8-3-8.2 0.7-3.4 0.8-7.4 2.4-10.4 1.4-2.7 4-4.1 5.8-6.4 0.6-0.8 0.6-1.9 1.2-2.6 2-2 4-4.1 6.2-5.9 1-0.8 2.2 0 3.7-0.3 0.5-1.8 2.5-3.4 4.4-2.9 0.8 0.2 2.4-1.9 2.9-2.1 0.8-0.3 0.4 0.8 0.4 1.5 1.9-1.5 4.5-2.3 6.9-3.2" fill="#e60b67" fill-rule="nonzero" stroke="none" stroke-width="1" stroke-linecap="butt" stroke-linejoin="miter" stroke-miterlimit="10" stroke-dasharray="" stroke-dashoffset="0" font-family="none" font-weight="none" font-size="none" text-anchor="none" style="mix-blend-mode: normal" data-fill-palette-color="tertiary"></path></g><g transform="matrix(1,0,0,1,114.05558012211884,90)"><svg viewBox="0 0 91.88883975576232 180" height="180" width="91.88883975576232"><g><svg viewBox="0 0 91.88883975576232 180" height="180" width="91.88883975576232"><g><svg viewBox="0 0 158.389458272328 310.2673030239364" height="180" width="91.88883975576232"><g transform="matrix(1,0,0,1,0,130.26730302393642)"><svg viewBox="0 0 158.389458272328 180" height="180" width="158.389458272328"><g id="textblocktransform"><svg viewBox="0 0 158.389458272328 180" height="180" width="158.389458272328" id="textblock"><g><svg viewBox="0 0 158.389458272328 180" height="180" width="158.389458272328"><g transform="matrix(1,0,0,1,0,0)"><svg width="158.389458272328" viewBox="3.65 -34.2 30.050000000000004 34.15" height="180" data-palette-color="#e60b67"><g class="wordmark-text-0" data-fill-palette-color="primary" id="text-0"><path d="M22.25-24.6L22.25-24.6Q22.25-26.7 20.63-27.48 19-28.25 15.2-28.25L15.2-28.25 15.2-20.6Q17.55-20.6 19.03-20.95 20.5-21.3 21.38-22.18 22.25-23.05 22.25-24.6ZM22.9-11.25L22.9-11.25Q22.9-12.9 22.05-13.8 21.2-14.7 19.6-15.08 18-15.45 15.2-15.45L15.2-15.45 15.2-6.8Q19.1-6.8 21-7.78 22.9-8.75 22.9-11.25ZM29.05-17.8L29.05-17.8Q33.7-15.05 33.7-10.45L33.7-10.45Q33.7-8.45 32.93-6.63 32.15-4.8 30.63-3.3 29.1-1.8 26.6-0.93 24.1-0.05 20.95-0.05L20.95-0.05 9.35-0.05Q6.3-0.05 4.98-1.6 3.65-3.15 3.65-7.15L3.65-7.15 3.65-28.3Q3.65-30 4.25-31.3 4.85-32.6 6.18-33.4 7.5-34.2 9.35-34.2L9.35-34.2 20.8-34.2Q25.8-34.15 29.13-31.48 32.45-28.8 32.45-24.6L32.45-24.6Q32.45-23.25 32.23-22.23 32-21.2 31.55-20.4 31.1-19.6 30.5-19 29.9-18.4 29.05-17.8Z" fill="#e60b67" data-fill-palette-color="primary"></path></g></svg></g></svg></g></svg></g></svg></g><g transform="matrix(1,0,0,1,30.252386530014647,0)"><svg viewBox="0 0 97.8846852122987 104.00098302393641" height="104.00098302393641" width="97.8846852122987"><g><svg version="1.1" xmlns="http://www.w3.org/2000/svg" xmlns:xlink="http://www.w3.org/1999/xlink" x="0" y="0" viewBox="0 0 94.119 100" enable-background="new 0 0 94.119 100" xml:space="preserve" width="97.8846852122987" height="104.00098302393641" class="icon-icon-0" data-fill-palette-color="accent" id="icon-0"><polygon points="82.354,0 69.118,3.861 75.552,21.324 88.235,17.647 " fill="#e60b67" data-fill-palette-color="accent"></polygon><polygon points="61.031,6.067 43.75,11.029 44.118,11.765 47.427,20.772 50.368,28.493 67.648,23.53 " fill="#e60b67" data-fill-palette-color="accent"></polygon><polygon points="35.846,13.235 20.589,17.647 27.207,35.111 42.464,30.699 38.604,20.772 " fill="#e60b67" data-fill-palette-color="accent"></polygon><polygon points="12.684,19.853 0,23.53 5.883,41.177 19.118,37.317 " fill="#e60b67" data-fill-palette-color="accent"></polygon><path d="M5.883 41.177v52.941c0 3.259 2.623 5.882 5.882 5.882h76.47c3.259 0 5.884-2.623 5.884-5.882V41.177H5.883zM82.354 70.588H17.647V52.942h64.706V70.588z" fill="#e60b67" data-fill-palette-color="accent"></path></svg></g></svg></g><g></g></svg></g></svg></g></svg></g></svg></g><defs></defs></svg><rect width="320" height="360" fill="none" stroke="none" visibility="hidden"></rect></g></svg></g></svg>